<?xml version="1.0" standalone="no"?>
<!DOCTYPE svg PUBLIC "-//W3C//DTD SVG 20010904//EN"
 "http://www.w3.org/TR/2001/REC-SVG-20010904/DTD/svg10.dtd">
<svg version="1.0" xmlns="http://www.w3.org/2000/svg"
 width="3295.000000pt" height="3295.000000pt" viewBox="0 0 3295.000000 3295.000000"
 preserveAspectRatio="xMidYMid meet">
<metadata>
Created by potrace 1.11, written by Peter Selinger 2001-2013
</metadata>
<g transform="translate(0.000000,3295.000000) scale(0.100000,-0.100000)"
fill="#000000" stroke="none">
<path d="M16055 32470 c-1892 -47 -3750 -406 -5511 -1066 -2776 -1040 -5226
-2809 -7067 -5104 -2337 -2913 -3555 -6495 -3466 -10191 50 -2103 504 -4109
1366 -6036 196 -439 516 -1060 775 -1502 1065 -1823 2532 -3464 4253 -4757
1741 -1309 3724 -2261 5845 -2808 1750 -451 3591 -617 5420 -490 4364 302
8413 2281 11285 5514 1150 1294 2074 2750 2750 4335 1111 2605 1489 5485 1089
8310 -589 4166 -2856 7939 -6316 10513 -2987 2222 -6645 3374 -10423 3282z
m-5705 -14725 c1118 -2544 2036 -4628 2039 -4630 4 -2 927 2074 2051 4612
1125 2539 2049 4622 2055 4629 8 12 162 14 957 12 l947 -3 -3012 -6762 c-1657
-3719 -3015 -6759 -3019 -6755 -10 10 -5928 13501 -5928 13513 0 5 380 9 938
9 l938 0 2034 -4625z m14617 -437 c-2 -3879 -6 -5092 -15 -5188 -75 -767 -206
-1287 -442 -1762 -459 -918 -1248 -1413 -2407 -1509 -214 -17 -716 -6 -913 20
-481 66 -925 197 -1394 413 -207 94 -279 136 -271 155 3 9 199 339 436 733
l431 717 162 -53 c319 -105 612 -177 896 -221 83 -13 176 -17 335 -18 190 0
235 3 333 23 262 53 456 156 624 330 257 267 395 656 438 1232 6 88 10 1896
10 5163 l0 5027 890 0 890 0 -3 -5062z"/>
</g>
</svg>
